<svg xmlns="http://www.w3.org/2000/svg" viewBox="0 0 1200 360" fill="none">
  <g stroke="#fff" stroke-linecap="round" stroke-linejoin="round">
    <path d="M70 238H310C382 238 410 205 455 184" stroke-width="2" opacity=".38"/>
    <path d="M1130 238H890C818 238 790 205 745 184" stroke-width="2" opacity=".38"/>
    <path d="M104 259C206 259 246 288 342 277C410 269 452 238 487 211" stroke-width="1.5" opacity=".24"/>
    <path d="M1096 259C994 259 954 288 858 277C790 269 748 238 713 211" stroke-width="1.5" opacity=".24"/>

    <path d="M460 252V148C460 82 518 42 600 42C682 42 740 82 740 148V252" stroke-width="3" opacity=".78"/>
    <path d="M492 252V151C492 102 536 74 600 74C664 74 708 102 708 151V252" stroke-width="1.8" opacity=".52"/>
    <path d="M524 252V158C524 125 553 104 600 104C647 104 676 125 676 158V252" stroke-width="1.2" opacity=".28"/>
    <path d="M444 252H756" stroke-width="3" opacity=".7"/>
    <path d="M474 275H726" stroke-width="1.5" opacity=".3"/>

    <path d="M600 18L619 51L600 84L581 51L600 18Z" fill="#fff" stroke-width="1" opacity=".96"/>
    <path d="M600 37V2M600 100V132M570 51H538M630 51H662" stroke-width="1.5" opacity=".5"/>
    <path d="M600 121L611 140L600 159L589 140L600 121Z" fill="#fff" stroke-width="1" opacity=".8"/>
    <path d="M600 170L616 198L600 226L584 198L600 170Z" stroke-width="2" opacity=".62"/>

    <path d="M504 168L518 192L504 216L490 192L504 168Z" fill="#fff" stroke-width="1" opacity=".42"/>
    <path d="M696 168L710 192L696 216L682 192L696 168Z" fill="#fff" stroke-width="1" opacity=".42"/>
    <path d="M454 225L464 242L454 259L444 242L454 225Z" stroke-width="1.5" opacity=".45"/>
    <path d="M746 225L756 242L746 259L736 242L746 225Z" stroke-width="1.5" opacity=".45"/>

    <path d="M356 174C406 123 434 101 488 79" stroke-width="1.4" opacity=".2"/>
    <path d="M844 174C794 123 766 101 712 79" stroke-width="1.4" opacity=".2"/>
    <path d="M320 204C375 169 419 151 462 145" stroke-width="1" opacity=".18"/>
    <path d="M880 204C825 169 781 151 738 145" stroke-width="1" opacity=".18"/>

    <g fill="#fff" stroke="none">
      <circle cx="310" cy="238" r="3" opacity=".4"/>
      <circle cx="890" cy="238" r="3" opacity=".4"/>
      <circle cx="405" cy="136" r="2" opacity=".35"/>
      <circle cx="795" cy="136" r="2" opacity=".35"/>
      <circle cx="551" cy="66" r="2" opacity=".42"/>
      <circle cx="649" cy="66" r="2" opacity=".42"/>
    </g>

    <path d="M250 176V194M241 185H259" stroke-width="2" opacity=".5"/>
    <path d="M950 176V194M941 185H959" stroke-width="2" opacity=".5"/>
    <path d="M386 98V116M377 107H395" stroke-width="1.5" opacity=".35"/>
    <path d="M814 98V116M805 107H823" stroke-width="1.5" opacity=".35"/>
    <path d="M544 24V38M537 31H551" stroke-width="1.4" opacity=".4"/>
    <path d="M656 24V38M649 31H663" stroke-width="1.4" opacity=".4"/>
  </g>
</svg>
